<?xml version="1.0" standalone="no"?>
<!DOCTYPE svg PUBLIC "-//W3C//DTD SVG 20010904//EN"
 "http://www.w3.org/TR/2001/REC-SVG-20010904/DTD/svg10.dtd">
<svg version="1.0" xmlns="http://www.w3.org/2000/svg"
 width="512.000000pt" height="512.000000pt" viewBox="0 0 512.000000 512.000000"
 preserveAspectRatio="xMidYMid meet">

<g transform="translate(0.000000,512.000000) scale(0.100000,-0.100000)"
fill="#000000" stroke="none">
<path d="M2395 4919 c-472 -61 -882 -400 -1035 -857 -45 -135 -61 -247 -59
-414 l2 -146 -32 -39 c-133 -160 -129 -377 8 -526 58 -63 143 -112 212 -123
l35 -6 369 -1201 c203 -661 379 -1222 391 -1247 52 -104 152 -165 274 -165
122 0 222 61 274 165 12 25 188 586 391 1246 l368 1202 36 6 c101 17 227 113
273 208 70 145 57 289 -39 420 l-46 62 2 141 c2 93 -3 173 -14 233 -115 667
-737 1126 -1410 1041z m448 -162 c111 -29 254 -94 348 -157 141 -95 293 -268
369 -420 95 -190 114 -277 115 -537 l1 -212 41 -36 c145 -123 106 -356 -72
-431 -70 -29 -223 -8 -249 35 -4 6 -21 18 -38 27 -25 13 -35 13 -59 4 -16 -7
-29 -16 -29 -20 0 -23 -95 -110 -142 -130 -66 -28 -170 -25 -235 8 -55 28 -67
28 -122 -7 -66 -42 -132 -61 -211 -61 -79 0 -145 19 -211 61 -55 35 -67 35
-122 7 -65 -33 -169 -36 -235 -8 -47 20 -142 107 -142 130 0 4 -13 13 -29 20
-32 13 -53 6 -103 -36 -41 -34 -92 -47 -168 -42 -89 5 -152 42 -197 116 -65
110 -51 225 40 316 l51 51 1 210 c0 162 5 225 17 275 59 226 159 400 316 552
166 160 334 250 557 298 133 29 371 23 508 -13z m-1020 -1933 c22 -20 69 -50
104 -66 35 -17 61 -34 56 -38 -19 -17 -223 -150 -230 -150 -4 0 -23 50 -41
112 -19 61 -36 116 -38 123 -4 9 73 51 100 54 5 1 27 -15 49 -35z m1575 14
c29 -12 51 -27 48 -33 -2 -7 -19 -62 -38 -123 -18 -62 -37 -112 -41 -112 -7 0
-211 133 -230 150 -4 3 25 23 65 43 40 19 86 49 102 66 17 17 32 31 35 31 3 0
29 -10 59 -22z m-1038 -120 c71 -31 81 -33 200 -33 115 0 130 2 190 29 36 15
72 29 80 29 43 5 11 -26 -122 -117 l-148 -100 -87 60 c-188 127 -213 146 -207
155 8 13 12 12 94 -23z m-80 -171 c74 -49 139 -93 144 -97 4 -5 -60 -54 -143
-109 l-151 -101 -152 101 c-140 94 -151 103 -133 115 11 7 79 53 150 102 72
48 135 86 140 83 6 -2 71 -45 145 -94z m998 -113 c-7 -6 -74 -53 -149 -103
l-137 -93 -152 102 c-84 56 -148 105 -144 110 5 4 74 50 153 103 l143 95 149
-101 c115 -78 146 -104 137 -113z m-574 -170 c77 -53 145 -100 150 -105 4 -4
-60 -53 -143 -108 l-151 -101 -152 101 c-140 94 -151 103 -133 115 11 7 79 53
150 103 72 49 132 89 134 90 1 0 67 -42 145 -95z m-755 -73 l53 -35 -28 -22
c-34 -27 -73 -49 -78 -43 -2 2 -15 41 -29 87 l-26 84 27 -18 c15 -10 51 -33
81 -53z m1304 -13 c-14 -46 -27 -85 -29 -87 -5 -6 -44 16 -78 43 l-28 22 78
52 c44 28 80 52 81 52 1 0 -10 -37 -24 -82z m-973 -208 c83 -55 150 -102 150
-105 0 -3 -67 -50 -150 -105 l-150 -100 -65 42 -65 43 -31 99 c-25 80 -28 101
-17 107 7 4 49 33 93 63 44 30 81 55 83 55 1 1 70 -44 152 -99z m803 39 c51
-34 93 -63 95 -65 2 -1 -10 -46 -27 -101 l-31 -98 -65 -43 -66 -43 -149 102
c-83 56 -148 104 -146 107 7 6 290 201 294 202 1 0 44 -28 95 -61z m-372 -330
c83 -55 147 -104 143 -108 -5 -5 -73 -51 -150 -104 l-141 -97 -145 98 c-80 53
-146 101 -148 107 -2 7 270 200 288 204 1 1 70 -44 153 -100z m-430 -290 c83
-55 147 -104 143 -109 -36 -32 -228 -150 -234 -143 -4 4 -29 79 -55 166 -47
153 -48 158 -29 172 10 8 20 15 22 15 1 0 70 -45 153 -101z m734 87 c18 -13
17 -19 -29 -172 -27 -88 -52 -163 -56 -167 -4 -5 -60 26 -124 69 -71 47 -113
81 -107 87 12 12 284 196 292 196 3 1 14 -5 24 -13z m-300 -377 c74 -49 137
-94 140 -98 5 -9 -278 -201 -295 -201 -9 0 -271 170 -293 190 -11 10 284 212
301 205 7 -2 73 -46 147 -96z m-347 -344 c34 -22 62 -42 62 -45 0 -7 -90 -63
-93 -59 -2 2 -11 31 -21 64 -10 33 -21 66 -24 74 -7 18 3 14 76 -34z m458 28
c-4 -9 -15 -43 -24 -75 -9 -32 -19 -58 -22 -58 -3 0 -25 13 -48 29 l-44 29 34
24 c101 75 115 82 104 51z m-174 -220 c97 -64 95 -60 54 -142 -25 -52 -88 -91
-146 -91 -58 0 -121 39 -146 91 -41 81 -42 78 54 141 48 32 89 58 91 58 3 0
44 -26 93 -57z"/>
<path d="M1761 4301 c-52 -56 -132 -196 -133 -231 -2 -56 52 -87 103 -60 10 6
32 36 48 68 16 31 47 82 70 112 47 63 51 91 16 125 -34 35 -62 31 -104 -14z"/>
</g>
</svg>
